<?xml version="1.0" encoding="UTF-8"?>
<!DOCTYPE svg PUBLIC "-//W3C//DTD SVG 1.1//EN" "http://www.w3.org/Graphics/SVG/1.1/DTD/svg11.dtd">
<!-- Creator: CorelDRAW -->
<svg xmlns="http://www.w3.org/2000/svg" xml:space="preserve" width="3508px" height="1417px" version="1.1" style="shape-rendering:geometricPrecision; text-rendering:geometricPrecision; image-rendering:optimizeQuality; fill-rule:evenodd; clip-rule:evenodd"
viewBox="0 0 3508 1417.37"
 xmlns:xlink="http://www.w3.org/1999/xlink"
 xmlns:xodm="http://www.corel.com/coreldraw/odm/2003">
 <defs>
  <style type="text/css">
   <![CDATA[
    .fil0 {fill:#3730A3}
    .fil1 {fill:#F97316}
   ]]>
  </style>
 </defs>
 <g id="Layer_x0020_1">
  <metadata id="CorelCorpID_0Corel-Layer"/>
  <g id="_2165682515424">
   <g>
    <path class="fil0" d="M101.92 784.24c-31.24,9.22 -48.78,27.66 -53.71,64.04l-0.3 46.3c43.94,2.47 95.06,-1.05 139.36,0.11 17.25,0.45 27.15,4.46 27.88,21.51 1.38,32.26 -45.78,23.04 -70.77,23.1 -31.51,0.07 -63.16,-0.37 -94.61,-0.12 -4.92,5.73 -1.53,0.34 -2.19,8.52l0 24.59c24.6,1.86 53.71,0.54 78.78,0.5 22.26,-0.03 56.87,-4.83 53.5,24 -2.9,24.77 -37.42,19.57 -60.26,19.48 -24.18,-0.09 -52.64,0.64 -73.88,0.42 3.85,9.97 1.81,19.33 2.15,31.71 27.99,3.94 97.48,-13.42 96.74,23.11 -0.7,34.57 -49.22,17.09 -97.29,22.53 2.84,31.58 -0.17,145.9 0.48,189.36 0.93,62.98 32.73,94.78 96.57,93.95 114.27,-1.49 92.02,-97.11 89.27,-188.7l-2.86 -85.2c1.37,-6.34 -0.92,-1.18 2.17,-5.45 8.68,12.27 16.67,21.87 25.23,31 11.21,11.95 13.49,16.2 27.3,29.04 24.03,22.35 47.51,35.64 82.2,21.04 10.4,-7.35 13.22,-8.5 22.28,-17.3 16.09,-15.62 43.34,-44.84 56.12,-63.41 1.83,2.55 3.36,-1.42 2.32,9.29 -1.37,36.8 -1.72,73.69 -3.29,110.37 -0.78,18.05 -1.94,36.4 -2.76,54.26 -1.13,24.94 2.19,32.71 4.74,54.87 3.37,4.72 8.39,16.73 14.9,23.8 3.04,3.3 7.53,7.78 10.39,9.91 2.61,1.94 10.24,5.08 12.16,7.52 32.89,10.07 69.62,13.85 100.89,0.06 61.87,-27.28 45.98,-120.34 45.98,-190.97 -0.01,-66.57 5.43,-318.64 -6.9,-349.34 -9.7,-24.14 -35.76,-43.69 -68.55,-48.53 -16.93,-2.49 -38.68,-2.41 -53.64,3.41 -18.48,7.19 -24.47,18.02 -36.79,25.04 -0.8,6.44 -24.8,34.73 -28.39,36.98 -3.41,9.26 1.35,3.91 -7.4,8.71 -1.08,6.82 -21.23,30.22 -26.73,37.24 -10.69,13.63 -17.58,24.07 -28.54,36.17 -4.43,8.35 -9.76,15.22 -17.23,20.27 -0.86,4.81 -11.66,22.61 -19.79,24.89l-0.58 -4.35c-8.73,-7.04 -17.03,-19.05 -24.19,-28.55l-70.59 -91.69c-31.49,-42.28 -58.37,-86.23 -140.17,-63.49z"/>
    <path class="fil0" d="M1548.65 1359.21c9.65,-10.38 12.85,-9.53 19.98,-23.55 6.66,-13.13 6.44,-18.52 10.15,-32.04 2.3,-27.64 2.55,-192.02 -0.2,-218.31 -6.96,-66.62 -40.88,-109.95 -79.17,-136.53 -69.85,-48.48 -190.3,-37.6 -273.11,-13.85 -31.67,9.08 -52.21,14.97 -62.11,45.91 -7.56,23.64 -3.22,175.06 -3.22,212.41 0,66.8 -12.5,147.39 44.26,171.33 44.88,18.92 125.57,15.1 131.65,-67.28 5.14,-69.65 -4.22,-147.49 1.37,-216.68 13.52,-7.52 42,-8.25 53.05,3.27 12.58,13.12 12,30.56 12.28,53.04 0.52,43.46 0.17,87.18 0.07,130.66 -0.1,42.79 7.02,78.26 35.89,94.67 14.3,8.12 35.12,11.73 54.26,11.03 28.76,-1.05 32.02,-5.82 54.85,-14.08z"/>
    <path class="fil0" d="M2238.79 1204.95c1.91,40.24 2.83,40.91 -10.43,42.2 -16.02,1.56 -41.31,5.26 -50.09,-6.32 -10.36,-13.66 -4.13,-33.82 7.67,-38.02 15.44,-5.5 37.71,-0.2 52.85,2.14zm-187.71 -244.29c-1.68,7.98 -0.06,2.84 -5.34,9.63 -2.54,3.26 -4.06,5.11 -6.34,9.59 -3.57,7 -5.38,14.44 -6.94,22.75 -2.49,53.33 27.1,88.56 80.78,87.95 42.07,-0.48 118.75,-37.07 125.33,23.25 -44.63,-5.83 -91.51,-5.24 -134.87,4.76 -58.35,13.46 -64.78,38.18 -88.21,58.91 -0.43,17.47 -16.77,27.53 -10.14,83.01 9.85,82.31 94.26,114.77 168.36,116.56 46.68,-0.19 77.68,-1.87 123.02,-9.51 31.78,-5.35 83.71,-22.16 96.71,-40.46 17.96,-25.25 12.34,-89.09 12.35,-124.84 0.03,-81.71 11.47,-165.56 -44.54,-227.78 -51.11,-56.78 -137.39,-64.1 -211.15,-53.13 -21.16,3.15 -36.73,5.45 -54.86,12.97 -19.04,7.9 -30.67,20.61 -44.16,26.34z"/>
    <path class="fil0" d="M950.62 1100.58l-84.95 -0.51c-1.32,-23.89 17.86,-41.88 42.34,-41.89 24.01,-0.01 46.92,18.13 42.61,42.4zm-221.69 175.37c11.73,19.33 23.28,36.06 39.48,50.18 6.87,5.98 17.05,13.78 25.69,19.32 7.66,4.91 23.67,11.49 29.64,16.41 20.35,4.69 34.03,11.41 57.18,13.74 53.72,5.4 140.81,-5.03 169.69,-44.27 36.05,-48.99 0.73,-127.3 -63.75,-122.42 -22.47,1.7 -35,16.04 -56.29,17.84 -35.26,12.43 -56.47,-7.37 -62.27,-37.38l39.72 0.54c46.33,-1.28 109.46,4.03 153.06,-1.43 24.82,-3.11 42.53,-8.64 47.4,-31.52 3.43,-16.09 1.65,-56.31 -1.08,-73.26 -13.31,-82.49 -74.79,-144.27 -153.11,-161.94 -43.96,-9.91 -96.56,-4.17 -134.13,12.55 -90.02,40.06 -113.76,109.63 -113.76,202.62 0,66.74 -2.61,83.43 22.53,139.02z"/>
    <path class="fil0" d="M1945.63 958.61c-3.34,-2.72 -5.67,-6.67 -10.55,-10.81 -4.09,-3.48 -9.26,-4.89 -11.11,-8.88 -34.83,-10.66 -40.98,-7.89 -78.76,-8.93 -1.4,-36.49 5.25,-84.92 -8,-116.31 -12.44,-29.47 -39.34,-43.73 -79.92,-43.95 -102.46,-0.55 -89.84,83.68 -88.72,161.63 -36.56,10.36 -57.1,27.27 -58.08,72.59 -1.04,48.34 22.51,59.61 58.09,73.05 4.34,59.25 -9.02,158.42 9.75,208.78 19.73,52.95 63.3,84.09 128.42,90.48 62.78,6.16 142.43,-12.39 155.01,-64.22 12.87,-53.02 -16.73,-90.88 -63.31,-95.41 -15.51,-1.51 -42.78,3.49 -52.47,0.91l-1.17 -139.84c49.87,0.69 112.76,-0.96 114,-69.16 0.42,-22.77 -6.4,-33.58 -13.18,-49.93z"/>
    <path class="fil0" d="M2560.58 928.73c-33.6,8.17 -77.86,36.61 -83.01,67.49 -3.41,20.47 -2.43,267.72 -0.57,299.94 2.73,47.1 27.25,70.3 72.97,76.6 67.94,3.51 101.9,-21.46 102.89,-89.51 0.91,-63.4 -2.75,-131.44 0.68,-194.02 50.64,-3.61 79.75,13.41 113.13,-21.95 22.36,-23.69 29.6,-74.54 11.5,-108.77 -16.21,-30.68 -48.49,-39.94 -92.74,-42.77 -35.95,-2.3 -92.31,1.26 -124.85,12.99z"/>
    <path class="fil0" d="M2980.03 1192.72c-9.59,1.63 -16.17,-7.79 -16.72,-17.83 -0.25,-4.61 1.16,-9.87 3.16,-13.61 4.31,-8.07 3.82,-6.53 10.72,-7.35 7.98,-7.29 64.38,-2.36 79.73,-3 0.53,-9.97 1.46,-21.02 -0.86,-28.96 -22.48,-6.69 -62.79,10.54 -62.91,-23.34 -0.11,-31.58 36.76,-19.3 64.03,-22.35 1.83,-139.3 -10.63,-152.01 -164.61,-146.98 -104.51,3.42 -81.98,113.62 -63.54,138.34 15.44,20.71 23.44,19.23 51.48,26.83 2.71,43.76 0.36,94.76 0.4,139.33 0.04,44.62 -3.98,91.38 21.98,118.14 31.16,32.13 168.26,45.44 153.95,-81.94 -23.99,-0.27 -47.87,-0.42 -71.86,-0.37 -23.64,0.05 -52.71,4.34 -52.31,-22.3 0.42,-27.89 34.28,-22.42 50.06,-22.35 23.71,0.1 50.69,1.17 74.03,-0.41l0.6 -29.23 -77.33 -2.62z"/>
    <path class="fil0" d="M2940.6 722.07c-38.26,9.2 -73.04,48.79 -61.24,99.16 8.68,37.06 49.26,74.16 98.43,62.71 38.25,-8.92 73.42,-49.71 62.55,-100 -8.47,-39.19 -50.11,-73.82 -99.74,-61.87z"/>
   </g>
   <g>
    <path class="fil1" d="M2908.13 663.21c0,0 -60.09,-125.98 -72.73,-228.93 -12.65,-102.94 -17.18,-145.69 -15.94,-178.08 1.24,-32.39 7.61,-43.94 -13.27,-36.48 -20.89,7.46 -235.06,70.86 -171.11,264 63.94,193.14 281.16,209.66 283.58,206.3 2.41,-3.37 -10.53,-26.81 -10.53,-26.81z"/>
    <path class="fil1" d="M2948.42 689.93c0,0 -78.06,-181.09 -89.46,-316.43 -11.4,-135.35 -0.09,-299.24 100.35,-327.71 100.43,-28.46 182.43,65.43 140.83,167.22 -41.6,101.78 -100.7,216.65 -122.21,292.99 -21.52,76.35 -29.51,183.93 -29.51,183.93z"/>
    <path class="fil1" d="M2979.52 688.02c0,0 -3.53,-129.37 98.2,-330.79 101.73,-201.42 211.24,-178.6 250.14,-124.88 38.9,53.72 72.06,124.05 -66.37,211.6 -138.43,87.56 -194.77,129.87 -234.35,171.9 -39.59,42.02 -47.62,72.17 -47.62,72.17z"/>
    <path class="fil1" d="M3217.61 502.57c124.73,-71.94 233.34,-64.85 242.78,15.54 9.44,80.39 -16.42,110 -142,118.96 -125.57,8.96 -117.39,-1.04 -177.31,8.53 -59.92,9.57 -94.24,35.36 -102.43,38.24 -8.19,2.88 -31.45,14.46 -29.49,1.79 7.07,-45.88 178.38,-165.72 208.45,-183.06z"/>
   </g>
  </g>
 </g>
</svg>
